<svg width="49" height="48" viewBox="0 0 49 48" fill="none" xmlns="http://www.w3.org/2000/svg">
<path fill-rule="evenodd" clip-rule="evenodd" d="M21.3416 9.78528L1.24869 29.7345C-0.41623 31.3875 -0.41623 34.1141 1.24869 35.7671L11.8963 46.3339C13.5617 47.9853 16.3021 47.9874 17.9675 46.3339L38.0631 26.3758C38.3018 26.1396 38.441 25.822 38.4524 25.4876C38.645 20.4618 39.0381 15.0891 39.0381 10.1003C39.0123 9.37095 38.3951 8.79996 37.6605 8.82553L22.3387 9.39817C22.1546 9.39065 21.9708 9.42117 21.7992 9.48781C21.6276 9.55444 21.4717 9.65574 21.3416 9.78528ZM27.2129 16.3956C28.3699 15.2473 30.2453 15.2473 31.4025 16.3956C32.559 17.5445 32.559 19.4065 31.4025 20.5548C30.2453 21.7037 28.3699 21.7037 27.2129 20.5548C26.0562 19.4065 26.0562 17.5445 27.2129 16.3956Z" fill="#F28F3B"/>
<path fill-rule="evenodd" clip-rule="evenodd" d="M2.19356 30.6724L22.2864 10.7232L37.7077 10.147L37.1221 25.4413L17.0234 45.3963C15.8721 46.5393 13.9878 46.5393 12.8359 45.3963L2.19356 34.8295C1.04225 33.6864 1.04225 31.8155 2.19356 30.6724ZM27.2133 16.3958C28.3703 15.2475 30.2457 15.2475 31.4028 16.3958C32.5594 17.5446 32.5594 19.4067 31.4028 20.555C30.2457 21.7038 28.3703 21.7038 27.2133 20.555C26.0566 19.4067 26.0566 17.5446 27.2133 16.3958Z" fill="#F28F3B"/>
<path fill-rule="evenodd" clip-rule="evenodd" d="M37.1777 23.9785L37.1218 25.4411L17.0232 45.3961C16.4015 46.0133 15.5663 46.2971 14.748 46.2479L37.1777 23.9785Z" fill="#D57829"/>
<path fill-rule="evenodd" clip-rule="evenodd" d="M2.19363 30.6722L22.2864 10.7231L23.7219 10.6694L1.3337 32.8976C1.294 32.096 1.58049 31.281 2.19363 30.6722Z" fill="#F5A058"/>
<path fill-rule="evenodd" clip-rule="evenodd" d="M29.8906 21.3639C29.8906 19.6096 30.4036 17.1794 31.3162 14.5837C32.2261 11.9954 33.52 9.28016 35.0526 6.95966C36.5908 4.63057 38.3411 2.74211 40.1472 1.75243C41.9108 0.786099 43.7091 0.67904 45.4915 1.85209C46.3884 2.70004 46.8392 3.58464 46.9767 4.48061C47.1169 5.39362 46.9391 6.36714 46.4962 7.38612C45.9527 8.63643 45.0277 9.91546 43.8851 11.1682H45.2158C46.1467 10.0648 46.9171 8.92625 47.4133 7.78475C47.9082 6.6462 48.1417 5.47867 47.9651 4.32886C47.7875 3.17188 47.202 2.0815 46.1444 1.09338L46.1146 1.0655L46.0806 1.04284C43.9255 -0.395395 41.7097 -0.244012 39.6667 0.875458C37.6551 1.97772 35.7959 4.01953 34.2181 6.40857C32.6347 8.80621 31.3062 11.597 30.3728 14.2521C29.4419 16.8998 28.8906 19.4505 28.8906 21.364L29.8906 21.3639Z" fill="#263C3C"/>
</svg>
